<svg xmlns="http://www.w3.org/2000/svg" xmlns:xlink="http://www.w3.org/1999/xlink" viewBox="0,0,255.99431,255.99431" width="128px" height="128px" fill-rule="nonzero"><defs><linearGradient x1="10.031" y1="10.031" x2="38.11" y2="38.11" gradientUnits="userSpaceOnUse" id="color-1"><stop offset="0" stop-color="#57ccfb"></stop><stop offset="0.519" stop-color="#4ccbfe"></stop><stop offset="1" stop-color="#33c4fe"></stop></linearGradient></defs><g fill="none" fill-rule="nonzero" stroke="none" stroke-width="1" stroke-linecap="butt" stroke-linejoin="miter" stroke-miterlimit="10" stroke-dasharray="" stroke-dashoffset="0" font-family="none" font-weight="none" font-size="none" text-anchor="none" style="mix-blend-mode: normal"><g transform="scale(5.33333,5.33333)"><path d="M24,44c11.045,0 20,-8.955 20,-20c0,-11.045 -8.955,-20 -20,-20c-11.045,0 -20,8.955 -20,20c0,11.045 8.955,20 20,20z" fill="url(#color-1)"></path><path d="M31.751,34.656c0.365,-0.414 0.325,-1.046 -0.09,-1.411c-2.125,-1.871 -4.846,-2.901 -7.661,-2.901c-2.815,0 -5.536,1.03 -7.66,2.901c-0.415,0.365 -0.455,0.997 -0.09,1.411c0.364,0.415 0.996,0.455 1.411,0.09c1.759,-1.549 4.01,-2.402 6.339,-2.402c2.329,0 4.58,0.853 6.34,2.402c0.19,0.168 0.425,0.25 0.66,0.25c0.277,0 0.553,-0.115 0.751,-0.34z" fill="#343434"></path><path d="M19.038,18.906c-0.323,0.122 -0.574,0.407 -0.635,0.772c-0.175,1.055 -0.904,1.945 -1.903,2.322c-0.999,0.377 -2.134,0.19 -2.962,-0.487c-0.428,-0.349 -1.059,-0.285 -1.407,0.142c-0.35,0.428 -0.287,1.058 0.141,1.407c1.379,1.127 3.269,1.437 4.933,0.81c1.664,-0.627 2.879,-2.109 3.171,-3.865c0.091,-0.545 -0.278,-1.06 -0.823,-1.15c-0.179,-0.031 -0.356,-0.011 -0.515,0.049z" fill="#343434"></path><path d="M28.257,18.906c0.323,0.122 0.574,0.407 0.635,0.772c0.175,1.055 0.904,1.945 1.903,2.321c0.999,0.377 2.134,0.19 2.962,-0.487c0.428,-0.349 1.059,-0.285 1.407,0.142c0.35,0.428 0.287,1.058 -0.141,1.407c-1.379,1.127 -3.269,1.437 -4.933,0.81c-1.664,-0.627 -2.879,-2.109 -3.171,-3.865c-0.091,-0.545 0.278,-1.06 0.823,-1.15c0.179,-0.03 0.356,-0.01 0.515,0.05z" fill="#343434"></path></g></g></svg>