<svg xmlns="http://www.w3.org/2000/svg"  viewBox="0 0 48 48" width="128px" height="128px"><path fill="#ffca28" d="M44,24c0,11-9,20-20,20S4,35,4,24S13,4,24,4S44,13,44,24z"/><path fill="#37474f" d="M22 22c0 1.1 0 6-6 6-4 0-7-4-7-6s1-3 3-3h7C20.1 19 22 20 22 22zM26 22c0 1.1 0 6 6 6 4 0 7-4 7-6s-1-3-3-3h-7C27.9 19 26 20 26 22z"/><path fill="#37474f" d="M22,23l-2,0c0-1,0.8-3,4-3s4,2,4,3h-2c0-0.1-0.2-1-2-1C22.2,22,22,22.9,22,23z"/><path fill="#b76c09" d="M24,37c-1.7,0-3-0.5-3.9-1.4C19,34.5,19,33.1,19,33l2,0c0,0.3,0.2,2,3,2c4.1,0,5-4,5-4.2l2,0.4 C30.6,33.2,28.6,37,24,37z"/></svg>