<svg xmlns="http://www.w3.org/2000/svg"  viewBox="0 0 50 50" width="50px" height="50px" baseProfile="basic"><polygon fill="#6189ff" points="24.998,3.062 10.001,11.72 9.999,11.719 9.999,38.28 18.999,43.476 21.999,41.744 21.999,45.208 25,46.939 39.999,38.279 39.998,11.722"/><polygon fill="#577be6" points="39.998,11.722 24.998,3.062 9.999,11.722 24.999,20.382"/><polygon fill="#4460b3" points="24.999,20.382 25,46.939 39.999,38.279 39.998,11.722"/><polygon fill="#6189ff" points="24.999,16.917 15.998,11.722 15.999,8.258 24.999,13.453"/><polygon fill="#4460b3" points="24.999,16.917 33.998,11.722 33.999,8.258 24.999,13.453"/><polygon fill="#5274d9" points="15.999,8.258 24.998,3.062 33.999,8.258 24.999,13.453"/><polygon fill="#4460b3" points="21.999,41.744 18.999,43.476 18.999,37.702 21.999,39.434"/><polygon fill="#66e1ff" points="12.999,34.238 12.999,36.548 15.999,38.28 15.999,35.97"/><polygon fill="#66e1ff" points="12.999,28.465 12.999,30.774 15.999,32.506 15.999,30.197"/><polygon fill="#66e1ff" points="18.999,31.929 18.999,34.238 21.999,35.97 21.999,33.661"/><polygon fill="#66e1ff" points="12.999,22.691 12.999,25.001 15.999,26.733 15.999,24.423"/><polygon fill="#66e1ff" points="18.999,26.155 18.999,28.465 21.999,30.197 21.999,27.887"/><polygon fill="#66e1ff" points="12.999,16.918 12.999,19.227 15.999,20.959 15.999,18.65"/><polygon fill="#66e1ff" points="18.999,20.382 18.999,22.691 21.999,24.423 21.999,22.114"/><polygon fill="#4da9bf" points="37,34.238 37,36.547 34,38.279 34,35.97"/><polygon fill="#4da9bf" points="37,28.464 37,30.774 34,32.506 34,30.196"/><polygon fill="#4da9bf" points="31,31.928 31,34.238 28,35.97 28,33.66"/><polygon fill="#4da9bf" points="37,22.691 37,25 34,26.732 34,24.423"/><polygon fill="#4da9bf" points="31,26.155 31,28.464 28,30.196 28,27.887"/><polygon fill="#4da9bf" points="37,16.917 37,19.226 34,20.959 34,18.649"/><polygon fill="#4da9bf" points="31,20.381 31,22.691 28,24.423 28,22.113"/><polygon fill="#4da9bf" points="31,37.702 31,40.011 28,41.743 28,39.434"/></svg>