<svg xmlns="http://www.w3.org/2000/svg"  viewBox="0 0 50 50" width="200px" height="200px" baseProfile="basic"><path fill="#2dea55" d="M50,46H31V11h19V46z M35,42h11V15H35V42z"/><rect width="9" height="4" x="38" y="18" fill="#2dea55"/><rect width="9" height="4" x="23" y="34" fill="#ffd217"/><rect width="9" height="4" x="7" y="27" fill="#af87ce"/><rect width="9" height="4" x="14" y="13" fill="#16d6fa"/><rect width="9" height="4" x="7" y="34" fill="#af87ce"/><rect width="9" height="4" x="38" y="32" fill="#2dea55"/><rect width="9" height="4" x="38" y="25" fill="#2dea55"/><polygon fill="#16d6fa" points="27,30 23,30 23,10 11,10 11,23 7,23 7,6 27,6"/><polygon fill="#ffd217" points="35,46 17,46 17,42 31,42 31,31 17,31 17,27 35,27"/><path fill="#af87ce" d="M19,46H0V20h19V46z M4,42h11V24H4V42z"/><rect width="4" height="4" x="7" y="20" fill="#742bc9"/><rect width="4" height="4" x="23" y="27" fill="#f68235"/><rect width="4" height="19" x="15" y="27" fill="#742bc9"/><rect width="4" height="19" x="31" y="27" fill="#0cbc35"/></svg>