<svg xmlns="http://www.w3.org/2000/svg"  viewBox="0 0 50 50" width="200px" height="200px" baseProfile="basic"><polygon fill="#a8a8a8" points="42,15.19 42,38.28 30,45.21 28,44.05 28,41.74 25,40.01 23,41.17 12,34.82 12,23.27 7,20.38 7,18.07 10,14.02 10,9.41 12,8.25 15,9.99 24,4.79"/><polygon fill="#ccc" points="12,23.27 12,34.817 23,41.167 23,41.166 25,40.011 28,41.743 28,44.053 30,45.207 30,27.893 25,30.774"/><polygon fill="#8c8c8c" points="23,41.166 25,40.011 25,33.083 23,31.928"/><polygon fill="#66e1ff" points="25,40.011 28,41.743 28,34.815 25,33.083"/><polygon fill="#66e1ff" points="14,32.506 21,36.547 21,28.464 14,24.423"/><polygon fill="#f25353" points="28,24.423 10,14.023 7,18.066 25,28.458"/><polygon fill="#ff5757" points="10,14.023 10,9.412 28,19.804 28,24.423"/><polygon fill="#b33d3d" points="28,19.804 28,24.423 25,28.458 25,30.774 30,27.887 30,18.649"/><polygon fill="#e64e4e" points="28,19.804 30,18.649 12,8.254 10,9.412"/><polygon fill="#ff5757" points="25,28.458 25,30.774 7,20.381 7,18.066"/><polygon fill="#57bfd9" points="14,32.506 14,24.423 16,25.577 16,31.351"/><polygon fill="#5ccae6" points="14,32.506 21,36.547 21,34.238 16,31.351"/><polygon fill="#737373" points="42,38.282 30,45.21 30,22.113 42,15.185"/></svg>