<svg xmlns="http://www.w3.org/2000/svg"  viewBox="0 0 64 64" width="192px" height="192px" baseProfile="basic"><polygon fill="#743951" points="35,59 49,59 48,43 47,42 36,43"/><polygon fill="#a2e4f4" points="51,59 50,43 55,41 56,42 56,57.5 53,59"/><polygon fill="#a2e4f4" points="56,34.5 56,39 49,42 40,31 44,24"/><polygon fill="#a2e4f4" points="22,33 8,37 8,33.5 22,21"/><polygon fill="#a2e4f4" points="16,46 34,44 33,59 17,59 15,57"/><polygon fill="#f0104c" points="4,27.5 7,31.5 24,16.5 21,12.5"/><polygon fill="#f0104c" points="23,10.5 26,14.5 37,7.5 33,3.5"/><polygon fill="#f0104c" points="35,11.5 40,10.5 50,20.5 46,22.5"/><polygon fill="#f0104c" points="47,23.5 51,22.5 60,30.5 57,33.5"/><polygon fill="#a2e4f4" points="24,32 27,33 38,31 41,21 32,13 25.943,18.3 24,22"/><polygon fill="#36c8f6" points="17,37 18,36 27,35 27,43 16,44"/><polygon fill="#a2e4f4" points="29,35 29,42 44,41 45,40 39,33"/><polygon fill="#a2e4f4" points="8,39 8,58 9,59 13,59 15,38 14,37"/></svg>