<svg xmlns="http://www.w3.org/2000/svg"  viewBox="0 0 64 64" width="64px" height="64px" baseProfile="basic"><polygon fill="#743951" points="25,55 39,55 38,42 36,41 26,44"/><polygon fill="#36c8f6" points="41,55 40,43 49,42 52,42 52,54 49,55"/><polygon fill="#36c8f6" points="52,35 52,39 40,41 37,39 41,29 43,27"/><polygon fill="#36c8f6" points="24,41 13,37 12,35.5 21,27"/><polygon fill="#36c8f6" points="12,39 24,44 23,55 14,55 12,53"/><polygon fill="#f0104c" points="7,31 10,34 21,24 19,21"/><polygon fill="#f0104c" points="22,19 23,23 36,12 33,9"/><polygon fill="#f0104c" points="35,17 38,14 49,24 46,26"/><polygon fill="#f0104c" points="47,27 50,25 57,31 54,34"/><polygon fill="#36c8f6" points="26,42 35,39 41,25 33,18 26,23 24,27"/><polygon fill="#f0104c" points="43,14 46,12 63,27 61,31"/><polygon fill="#00b569" points="59,33 55,36 55,52 61,50 61,35"/><polygon fill="#f0104c" points="21,14 18,12 1,27 3,30"/><polygon fill="#ffa62e" points="5,32 9,36 9,52 3,50 3,33"/></svg>