<svg xmlns="http://www.w3.org/2000/svg"  viewBox="0 0 100 100" width="200px" height="200px"><circle cx="27.276" cy="32.162" r="8.5" fill="#fdf5a9"/><path fill="#1f212b" d="M29.22,41.461c-5.127,1.071-10.171-2.229-11.242-7.356s2.229-10.171,7.356-11.242 c5.127-1.071,10.171,2.229,11.242,7.356S34.347,40.389,29.22,41.461z M25.742,24.82c-4.049,0.846-6.653,4.827-5.807,8.876 c0.846,4.049,4.827,6.653,8.876,5.807s6.653-4.827,5.807-8.876C33.772,26.579,29.791,23.974,25.742,24.82z"/><path fill="#1f212b" d="M24.924,20.905c-0.27,0.056-0.535-0.117-0.592-0.387l-0.818-3.915 c-0.056-0.27,0.117-0.535,0.387-0.592c0.27-0.056,0.535,0.117,0.592,0.387l0.818,3.915C25.367,20.583,25.194,20.848,24.924,20.905z"/><path fill="#1f212b" d="M19.379,23.705c-0.168,0.035-0.352-0.018-0.475-0.156l-2.666-2.982 c-0.185-0.206-0.167-0.522,0.039-0.706c0.204-0.186,0.522-0.167,0.706,0.039l2.666,2.982c0.185,0.206,0.167,0.522-0.039,0.706 C19.543,23.65,19.463,23.688,19.379,23.705z"/><path fill="#1f212b" d="M15.978,28.904c-0.083,0.017-0.172,0.014-0.258-0.014l-3.8-1.249 c-0.262-0.086-0.405-0.368-0.319-0.631c0.086-0.262,0.369-0.404,0.631-0.319l3.8,1.249c0.262,0.086,0.405,0.368,0.319,0.631 C16.293,28.746,16.146,28.869,15.978,28.904z"/><path fill="#1f212b" d="M15.632,35.106l-3.915,0.818c-0.27,0.056-0.535-0.117-0.592-0.387 c-0.056-0.27,0.117-0.535,0.387-0.592l3.915-0.818c0.27-0.056,0.535,0.117,0.592,0.387C16.076,34.784,15.903,35.049,15.632,35.106z"/><path fill="#1f212b" d="M43.04,29.378l-3.915,0.818c-0.27,0.056-0.535-0.117-0.592-0.387 c-0.056-0.27,0.117-0.535,0.387-0.592l3.915-0.818c0.27-0.056,0.535,0.117,0.592,0.387S43.31,29.322,43.04,29.378z"/><path fill="#1f212b" d="M36.324,24.652c-0.168,0.035-0.352-0.018-0.475-0.156c-0.185-0.206-0.167-0.522,0.039-0.706 l2.982-2.666c0.205-0.185,0.522-0.168,0.706,0.039c0.185,0.206,0.167,0.522-0.039,0.706l-2.982,2.666 C36.487,24.597,36.408,24.635,36.324,24.652z"/><path fill="#1f212b" d="M31.126,21.251c-0.083,0.017-0.172,0.014-0.258-0.014c-0.262-0.086-0.405-0.368-0.319-0.631 l1.249-3.8c0.086-0.261,0.369-0.404,0.631-0.319c0.262,0.086,0.405,0.368,0.319,0.631l-1.249,3.8 C31.441,21.094,31.294,21.215,31.126,21.251z"/><path fill="#a0d2a1" d="M13.365,42.34V77c0,3.866,3.134,7,7,7h58c3.866,0,7-3.134,7-7V33h-6h-12	C67.365,33,31.751,34.286,13.365,42.34z"/><path fill="#8cc78c" d="M14,57v23l4,4c0,0,13-29,48.992-50.936c2.836-1.728-10.036,0.157-13.243,1.019C28,41,14,57,14,57z"/><path fill="#70b570" d="M13,42v16c0,0,10-14,40-24C30,35,13,42,13,42z"/><path fill="#70b570" d="M42.5,83.288c0,0,10.5-31.288,34-50c1.173-0.934,6.886-1.21,6,0c-11.5,15.712-16,50-16,50H42.5z"/><path fill="none" stroke="#1f212b" stroke-linecap="round" stroke-linejoin="round" stroke-miterlimit="10" stroke-width="2" d="M13.365,42.34V77c0,3.866,3.134,7,7,7h58c3.866,0,7-3.134,7-7V33h-6h-12C67.365,33,31.751,34.286,13.365,42.34z"/><path fill="none" stroke="#1f212b" stroke-linecap="round" stroke-linejoin="round" stroke-miterlimit="10" d="M82.5,33.288	c0,0-10,12-16,50"/><path fill="none" stroke="#1f212b" stroke-linecap="round" stroke-linejoin="round" stroke-miterlimit="10" d="M76.5,33.288	c0,0-24,19-34,50"/><path fill="none" stroke="#1f212b" stroke-linecap="round" stroke-linejoin="round" stroke-miterlimit="10" d="M67.5,33.288	c0,0-31,16-49,49"/><path fill="none" stroke="#1f212b" stroke-linecap="round" stroke-linejoin="round" stroke-miterlimit="10" d="M52.5,34.288	c0,0-26,8-39,23"/></svg>