<svg xmlns="http://www.w3.org/2000/svg" xmlns:xlink="http://www.w3.org/1999/xlink" viewBox="0,0,255.99431,255.99431" width="192px" height="192px" fill-rule="nonzero"><g fill="none" fill-rule="nonzero" stroke="none" stroke-width="1" stroke-linecap="butt" stroke-linejoin="miter" stroke-miterlimit="10" stroke-dasharray="" stroke-dashoffset="0" font-family="none" font-weight="none" font-size="none" text-anchor="none" style="mix-blend-mode: normal"><g transform="scale(5.33333,5.33333)"><path d="M40.26,34.92c-0.31,0.31 -0.38,0.77 -0.19,1.16l0.51,1.01c0.67,1.35 0.23,3 -1.02,3.84l-3.44,2.29c-0.86,0.57 -1.94,0.67 -2.89,0.24l-6.44,-2.87c-0.37,-0.17 -0.82,-0.09 -1.12,0.21l-2.32,2.32c-0.56,0.57 -1.32,0.88 -2.12,0.88h-5.15c-0.76,0 -1.49,-0.29 -2.04,-0.8l-2.86,-2.66c-0.8,-0.75 -1.13,-1.87 -0.86,-2.93l0.46,-1.83c0.07,-0.32 -0.01,-0.66 -0.23,-0.91l-6.7,-7.6c-0.85,-0.97 -0.99,-2.37 -0.35,-3.49l3.06,-5.28c0.53,-0.93 1.53,-1.5 2.59,-1.5h1.04c0.26,0 0.51,-0.1 0.7,-0.29l6.09,-5.94c0.01,-0.01 0.02,-0.02 0.03,-0.02c-0.01,0.08 -0.01,0.17 -0.01,0.25c0,5.09 6.55,13.82 8,13.82c1.45,0 8,-8.73 8,-13.82c0,-0.51 -0.05,-1 -0.14,-1.48l5.19,3.32c0.16,0.11 0.34,0.16 0.54,0.16h2.07c1.22,0 2.31,0.73 2.77,1.86l1.14,2.75c0.6,1.44 -0.03,3.12 -1.43,3.82l-0.43,0.22c-0.24,0.12 -0.42,0.32 -0.5,0.58c-0.09,0.25 -0.07,0.52 0.05,0.76l2.34,4.68c0.58,1.16 0.36,2.55 -0.56,3.47z" fill="#6be3a2"></path><path d="M18,30c-1.104,0 -2,0.896 -2,2c0,1.104 0.896,2 2,2c1.104,0 2,-0.896 2,-2c0,-1.104 -0.896,-2 -2,-2z" fill="#04a475"></path><path d="M25,25.818c-2.299,0 -9,-9.524 -9,-14.818c0,-4.963 4.037,-9 9,-9c4.963,0 9,4.037 9,9c0,5.294 -6.701,14.818 -9,14.818zM25,4c-3.859,0 -7,3.141 -7,7c0,4.384 5.486,11.814 7,12.763c1.514,-0.948 7,-8.379 7,-12.763c0,-3.859 -3.141,-7 -7,-7z" fill="#04a475"></path><path d="M25,15c-2.206,0 -4,-1.794 -4,-4c0,-2.206 1.794,-4 4,-4c2.206,0 4,1.794 4,4c0,2.206 -1.794,4 -4,4zM25,9c-1.103,0 -2,0.897 -2,2c0,1.103 0.897,2 2,2c1.103,0 2,-0.897 2,-2c0,-1.103 -0.897,-2 -2,-2z" fill="#04a475"></path></g></g></svg>