<svg xmlns="http://www.w3.org/2000/svg"  viewBox="0 0 50 50" width="150px" height="150px" baseProfile="basic"><polygon fill="#66e1ff" points="13,3.061 9.002,5.369 9,5.367 9,30.774 37.001,46.939 41.001,44.629 41,19.226"/><polygon fill="#5ccae6" points="41,19.226 13,3.061 9,5.37 37,21.536"/><polygon fill="#479db3" points="37,21.536 37.001,46.939 41.001,44.629 41,19.226"/><path fill="#479db3" d="M18,17.494l-3-1.732l-2,1.155v9.238l2,1.155v-3.464l3,1.732v3.464l2,1.155v-9.238L18,17.494z M15,21.536v-2.309l1-0.577l1,0.577l1,1.732v2.309L15,21.536z"/><polygon fill="#479db3" points="31,25 31,36.547 33,37.702 33,26.155"/><path fill="#479db3" d="M22,19.804v11.547l2,1.155v-3.464l5,2.887v-8.083L22,19.804z M27,28.464l-3-1.732v-3.464L27,25	V28.464z"/></svg>