<svg xmlns="http://www.w3.org/2000/svg"  viewBox="0 0 50 50" width="200px" height="200px" fill-rule="evenodd" clip-rule="evenodd" baseProfile="basic"><polygon fill="#577be6" points="41,20.38 40.17,21.54 41,22.69 41,28.46 40.17,29.62 41,30.77 41,36.55 36.31,43.08 25,45.78 13.69,43.08 9,36.55 9,30.77 9.83,29.62 9,28.46 9,22.69 9.83,21.54 9,20.38 9,14.61 13.68,8.08 25,5.37 36.31,8.08 41,14.61"/><polygon fill="#4d6dcc" points="25,23.845 25,29.619 36.314,26.913 36.314,21.14"/><polygon fill="#4460b3" points="36.314,21.14 41,14.608 41,20.381 36.314,26.913"/><polygon fill="#5c82f2" points="25,23.845 25,29.619 13.686,26.913 13.686,21.14"/><polygon fill="#6189ff" points="13.686,21.14 9,14.608 9,20.381 13.686,26.913"/><polygon fill="#4d6dcc" points="25,40.011 25,45.785 36.314,43.079 36.314,37.305"/><polygon fill="#4460b3" points="36.314,37.305 41,30.774 41,36.547 36.314,43.079"/><polygon fill="#5c82f2" points="25,40.011 25,45.785 13.686,43.079 13.686,37.305"/><polygon fill="#6189ff" points="13.686,37.305 9,30.774 9,36.547 13.686,43.079"/><polygon fill="#4d6dcc" points="25,31.928 25,37.702 36.314,34.996 36.314,29.223"/><polygon fill="#4460b3" points="36.314,29.223 41,22.691 41,28.464 36.314,34.996"/><polygon fill="#5c82f2" points="25,31.928 25,37.702 13.686,34.996 13.686,29.223"/><polygon fill="#6189ff" points="13.686,29.223 9,22.691 9,28.464 13.686,34.996"/><path fill="#5ccae6" fill-rule="evenodd" d="M28.579,11.632l1.732-1l1.732,1l-1.732,1L28.579,11.632z M26.847,9.632h3.464l3.464,2v2l-1.667,0.962l-3.529,0.038l-6.928,4h-3.464v-2l6.928-4l-0.007-2L26.847,9.632z" clip-rule="evenodd"/></svg>