<svg xmlns="http://www.w3.org/2000/svg"  viewBox="0 0 50 50" width="200px" height="200px" fill-rule="evenodd" clip-rule="evenodd" baseProfile="basic"><polygon fill="#57bfd9" fill-rule="evenodd" points="10.407,26.021 14.722,28.512 10.397,31.009 6.072,28.512" clip-rule="evenodd"/><polygon fill="#737373" fill-rule="evenodd" points="11.269,29.518 13.867,28.018 13.867,17.018 11.269,18.518" clip-rule="evenodd"/><polygon fill="#ccc" fill-rule="evenodd" points="11.269,18.518 8.671,17.018 8.671,28.018 11.269,29.518" clip-rule="evenodd"/><polygon fill="#57bfd9" fill-rule="evenodd" points="11.273,9.539 15.588,12.03 11.263,14.527 6.938,12.03" clip-rule="evenodd"/><polygon fill="#66e1ff" fill-rule="evenodd" points="6.938,17.024 6.938,12.03 11.263,14.527 11.263,19.521" clip-rule="evenodd"/><polygon fill="#66e1ff" fill-rule="evenodd" points="6.072,33.506 6.072,28.512 10.397,31.009 10.397,36.003" clip-rule="evenodd"/><polygon fill="#479db3" points="11.263,14.527 15.588,12.03 15.588,17.024 11.263,19.521"/><polygon fill="#ccc" fill-rule="evenodd" points="12.99,14.5 12.99,17.5 21.062,22.16 21.062,19.16" clip-rule="evenodd"/><polygon fill="#57bfd9" fill-rule="evenodd" points="23.387,35.521 27.703,38.012 23.378,40.509 19.053,38.012" clip-rule="evenodd"/><polygon fill="#479db3" points="10.397,31.009 14.722,28.512 14.722,33.506 10.397,36.003"/><polygon fill="#a8a8a8" fill-rule="evenodd" points="15.588,13 12.99,14.5 21.062,19.16 23.66,17.66" clip-rule="evenodd"/><polygon fill="#577be6" fill-rule="evenodd" points="26,15.012 34.641,20 25.981,25 17.321,20" clip-rule="evenodd"/><polygon fill="#737373" fill-rule="evenodd" points="24.238,39 26.837,37.5 26.837,26.5 24.238,28" clip-rule="evenodd"/><polygon fill="#66e1ff" fill-rule="evenodd" points="19.053,43.006 19.053,38.012 23.378,40.509 23.378,45.503" clip-rule="evenodd"/><polygon fill="#ccc" fill-rule="evenodd" points="24.238,28 21.64,26.5 21.64,37.5 24.238,39" clip-rule="evenodd"/><polygon fill="#6189ff" fill-rule="evenodd" points="17.321,30 17.321,20 25.981,25 25.981,35" clip-rule="evenodd"/><polygon fill="#479db3" points="23.378,40.509 27.703,38.012 27.703,43.006 23.378,45.503"/><polygon fill="#4460b3" points="25.981,25 34.641,20 34.641,30 25.981,35"/><polygon fill="#ccc" fill-rule="evenodd" points="32.043,26.5 32.043,29.5 38.105,33 38.105,30" clip-rule="evenodd"/><polygon fill="#737373" fill-rule="evenodd" points="30.311,21.5 32.909,20 32.909,11 30.311,12.5" clip-rule="evenodd"/><polygon fill="#ccc" fill-rule="evenodd" points="30.311,12.5 27.713,11 27.713,20 30.311,21.5" clip-rule="evenodd"/><polygon fill="#a8a8a8" fill-rule="evenodd" points="34.641,25 32.043,26.5 38.105,30 40.703,28.5" clip-rule="evenodd"/><polygon fill="#57bfd9" fill-rule="evenodd" points="40.718,26.521 45.033,29.012 40.708,31.509 36.383,29.012" clip-rule="evenodd"/><polygon fill="#57bfd9" fill-rule="evenodd" points="30.326,3.521 34.641,6.012 30.316,8.509 25.991,6.012" clip-rule="evenodd"/><polygon fill="#66e1ff" fill-rule="evenodd" points="36.383,34.006 36.383,29.012 40.708,31.509 40.708,36.503" clip-rule="evenodd"/><polygon fill="#66e1ff" fill-rule="evenodd" points="25.991,11.006 25.991,6.012 30.316,8.509 30.316,13.503" clip-rule="evenodd"/><polygon fill="#479db3" points="40.708,31.509 45.033,29.012 45.033,34.006 40.708,36.503"/><polygon fill="#479db3" points="30.316,8.509 34.641,6.012 34.641,11.006 30.316,13.503"/><polygon fill="#ccc" fill-rule="evenodd" points="32.048,8.503 32.048,11.503 38.11,15.003 38.11,12.003" clip-rule="evenodd"/><polygon fill="#a8a8a8" fill-rule="evenodd" points="34.646,7.003 32.048,8.503 38.11,12.003 40.708,10.503" clip-rule="evenodd"/><polygon fill="#57bfd9" fill-rule="evenodd" points="40.708,9.503 45.023,11.994 40.698,14.491 36.373,11.994" clip-rule="evenodd"/><polygon fill="#66e1ff" fill-rule="evenodd" points="36.373,16.988 36.373,11.994 40.698,14.491 40.698,19.485" clip-rule="evenodd"/><polygon fill="#479db3" points="40.698,14.491 45.023,11.994 45.023,16.988 40.698,19.485"/></svg>