<svg xmlns="http://www.w3.org/2000/svg"  viewBox="0 0 50 50" width="200px" height="200px" fill-rule="evenodd" clip-rule="evenodd" baseProfile="basic"><polygon fill="#b33d3d" points="16.689,29.97 25.349,24.97 25.349,34.97 16.689,39.97"/><polygon fill="#737373" fill-rule="evenodd" points="18.421,30.97 20.153,29.97 20.153,31.97 18.421,32.97" clip-rule="evenodd"/><polygon fill="#737373" fill-rule="evenodd" points="21.885,28.97 23.617,27.97 23.617,29.97 21.885,30.97" clip-rule="evenodd"/><polygon fill="#737373" fill-rule="evenodd" points="18.421,34.97 20.153,33.97 20.153,35.97 18.421,36.97" clip-rule="evenodd"/><polygon fill="#737373" fill-rule="evenodd" points="21.885,32.97 23.617,31.97 23.617,33.97 21.885,34.97" clip-rule="evenodd"/><polygon fill="#e64e4e" fill-rule="evenodd" points="16.708,19.982 25.349,24.97 16.689,29.97 8.028,24.97" clip-rule="evenodd"/><polygon fill="#a8a8a8" fill-rule="evenodd" points="11.492,24.97 13.224,25.97 14.956,24.97 13.224,23.97" clip-rule="evenodd"/><polygon fill="#a8a8a8" fill-rule="evenodd" points="14.956,26.97 16.689,27.97 18.421,26.97 16.689,25.97" clip-rule="evenodd"/><polygon fill="#a8a8a8" fill-rule="evenodd" points="18.421,24.97 20.153,25.97 21.885,24.97 20.153,23.97" clip-rule="evenodd"/><polygon fill="#a8a8a8" fill-rule="evenodd" points="14.956,22.97 16.689,23.97 18.421,22.97 16.689,21.97" clip-rule="evenodd"/><polygon fill="#ff5757" fill-rule="evenodd" points="8.028,34.97 8.028,24.97 16.689,29.97 16.689,39.97" clip-rule="evenodd"/><polygon fill="#ccc" fill-rule="evenodd" points="9.76,27.97 9.76,29.97 11.492,30.97 11.492,28.97" clip-rule="evenodd"/><polygon fill="#ccc" fill-rule="evenodd" points="13.224,29.97 13.224,31.97 14.956,32.97 14.956,30.97" clip-rule="evenodd"/><polygon fill="#ccc" fill-rule="evenodd" points="13.224,33.97 13.224,35.97 14.956,36.97 14.956,34.97" clip-rule="evenodd"/><polygon fill="#ccc" fill-rule="evenodd" points="9.76,31.97 9.76,33.97 11.492,34.97 11.492,32.97" clip-rule="evenodd"/><polygon fill="#4460b3" points="32.277,38.97 40.937,33.97 40.937,43.97 32.277,48.97"/><polygon fill="#4d6dcc" fill-rule="evenodd" points="32.277,39.97 33.143,38.47 32.277,38.97" clip-rule="evenodd"/><polygon fill="#4d6dcc" fill-rule="evenodd" points="32.277,41.97 34.875,37.47 36.607,36.47 32.277,43.97" clip-rule="evenodd"/><polygon fill="#4d6dcc" fill-rule="evenodd" points="32.277,45.97 38.339,35.47 40.071,34.47 32.277,48.97" clip-rule="evenodd"/><polygon fill="#4d6dcc" fill-rule="evenodd" points="34.009,47.97 40.937,34.97 40.937,36.97 35.741,46.97" clip-rule="evenodd"/><polygon fill="#4d6dcc" fill-rule="evenodd" points="40.937,38.97 37.473,45.97 39.205,44.97 40.937,40.97" clip-rule="evenodd"/><polygon fill="#577be6" fill-rule="evenodd" points="32.296,28.982 40.937,33.97 32.277,38.97 23.617,33.97" clip-rule="evenodd"/><polygon fill="#4460b3" fill-rule="evenodd" points="26.215,35.47 26.215,32.477 27.947,31.47 27.947,36.47" clip-rule="evenodd"/><polygon fill="#4460b3" fill-rule="evenodd" points="29.679,37.47 29.679,30.47 31.411,31.47 31.411,38.47" clip-rule="evenodd"/><polygon fill="#4460b3" fill-rule="evenodd" points="33.143,38.47 33.143,31.47 34.875,30.47 34.875,37.47" clip-rule="evenodd"/><polygon fill="#4460b3" fill-rule="evenodd" points="36.607,36.47 36.607,31.47 38.339,32.47 38.339,35.47" clip-rule="evenodd"/><polygon fill="#4460b3" fill-rule="evenodd" points="40.071,34.458 40.071,33.47 40.937,33.97" clip-rule="evenodd"/><polygon fill="#6189ff" fill-rule="evenodd" points="23.617,43.97 23.617,33.97 32.277,38.97 32.277,48.97" clip-rule="evenodd"/><polygon fill="#4460b3" points="16.689,12.97 25.349,7.97 25.349,17.97 16.689,22.97"/><polygon fill="#577be6" fill-rule="evenodd" points="16.689,2.97 25.349,7.97 16.689,12.97 8.028,7.97" clip-rule="evenodd"/><polygon fill="#6189ff" fill-rule="evenodd" points="8.028,17.97 8.028,7.97 16.689,12.97 16.689,22.97" clip-rule="evenodd"/><polygon fill="#479db3" points="32.277,21.97 40.937,16.97 40.937,26.97 32.277,31.97"/><polygon fill="#57bfd9" fill-rule="evenodd" points="32.277,11.97 40.937,16.97 32.277,21.97 23.617,16.97" clip-rule="evenodd"/><polygon fill="#60d2ee" fill-rule="evenodd" points="23.617,26.97 23.617,16.97 32.277,21.97 32.277,31.97" clip-rule="evenodd"/><polygon fill="#479db3" fill-rule="evenodd" points="25.349,19.97 27.947,21.47 27.947,24.47 25.349,25.97" clip-rule="evenodd"/><polygon fill="#57bfd9" fill-rule="evenodd" points="27.947,24.47 30.545,25.97 30.545,28.97 25.349,25.97" clip-rule="evenodd"/><polygon fill="#4460b3" fill-rule="evenodd" points="23.617,36.97 23.617,38.97 27.947,36.47 26.215,35.47" clip-rule="evenodd"/><polygon fill="#4460b3" fill-rule="evenodd" points="23.617,40.97 23.617,42.97 31.411,38.47 29.679,37.47" clip-rule="evenodd"/><polygon fill="#4460b3" fill-rule="evenodd" points="24.483,44.47 32.277,39.97 32.277,41.97 26.215,45.47" clip-rule="evenodd"/><polygon fill="#4460b3" fill-rule="evenodd" points="27.947,46.47 32.277,43.97 32.277,45.97 29.679,47.47" clip-rule="evenodd"/></svg>