<svg xmlns="http://www.w3.org/2000/svg"  viewBox="0 0 50 50" width="200px" height="200px" fill-rule="evenodd" clip-rule="evenodd" baseProfile="basic"><polygon fill="#66e1ff" points="21.785,3 5.33,29.5 9.66,40 21.785,47 33.909,40 38.239,29.5"/><polygon fill="#61d6f2" points="5.33,29.5 21.785,3 21.785,39"/><polygon fill="#4da9bf" points="33.909,40 38.239,29.5 21.785,39 21.785,47"/><polygon fill="#479db3" points="38.239,29.5 21.785,3 21.785,39"/><polygon fill="#4460b3" fill-rule="evenodd" points="21.785,28 33.179,21.434 38.239,29.5 21.785,39" clip-rule="evenodd"/><polygon fill="#4967bf" fill-rule="evenodd" points="21.785,39 21.785,47 33.909,40 38.239,29.5" clip-rule="evenodd"/><polygon fill="#6189ff" fill-rule="evenodd" points="21.785,28 10.361,21.404 5.33,29.5 21.785,39" clip-rule="evenodd"/><polygon fill="#577be6" fill-rule="evenodd" points="21.785,47 21.785,39 5.33,29.5 9.66,40" clip-rule="evenodd"/><polygon fill="#ccc" fill-rule="evenodd" points="34.775,34.5 34.775,38.5 40.837,42 40.837,38" clip-rule="evenodd"/><polygon fill="#a8a8a8" fill-rule="evenodd" points="38.239,32.5 44.301,36 40.837,38 34.775,34.5" clip-rule="evenodd"/><polygon fill="#999" fill-rule="evenodd" points="40.837,42 44.301,40 44.301,36 40.837,38" clip-rule="evenodd"/><polygon fill="#ccc" fill-rule="evenodd" points="34.775,24.5 34.775,28.5 40.837,32 40.837,28" clip-rule="evenodd"/><polygon fill="#a8a8a8" fill-rule="evenodd" points="38.239,22.5 44.301,26 40.837,28 34.775,24.5" clip-rule="evenodd"/><polygon fill="#999" fill-rule="evenodd" points="40.837,32 44.301,30 44.301,26 40.837,28" clip-rule="evenodd"/><polygon fill="#ccc" fill-rule="evenodd" points="34.775,14.5 34.775,18.5 40.837,22 40.837,18" clip-rule="evenodd"/><polygon fill="#a8a8a8" fill-rule="evenodd" points="38.239,12.5 44.301,16 40.837,18 34.775,14.5" clip-rule="evenodd"/><polygon fill="#999" fill-rule="evenodd" points="40.837,22 44.301,20 44.301,16 40.837,18" clip-rule="evenodd"/></svg>