<svg xmlns="http://www.w3.org/2000/svg"  viewBox="0 0 24 24" width="192px" height="192px"><polygon fill="#2196F3" points="2,6 12,10 22,6 12,2"/><polygon fill="#64B5F6" points="2,18 12,22 12,10 2,6"/><polygon fill="#42A5F5" points="12,10 22,6 22,18 12,22"/><path fill="#CFD8DC" d="M12,5c-1.378,0-2.5-1.122-2.5-2.5S10.622,0,12,0s2.5,1.122,2.5,2.5S13.378,5,12,5z"/><path fill="#CFD8DC" d="M12,12c-1.378,0-2.5-1.122-2.5-2.5S10.622,7,12,7s2.5,1.122,2.5,2.5S13.378,12,12,12z"/><path fill="#CFD8DC" d="M12,24c-1.378,0-2.5-1.122-2.5-2.5S10.622,19,12,19s2.5,1.122,2.5,2.5S13.378,24,12,24z"/><path fill="#CFD8DC" d="M2.5,20.5C1.122,20.5,0,19.378,0,18s1.122-2.5,2.5-2.5S5,16.622,5,18S3.878,20.5,2.5,20.5z"/><path fill="#CFD8DC" d="M21.5,20.5c-1.378,0-2.5-1.122-2.5-2.5s1.122-2.5,2.5-2.5S24,16.622,24,18S22.878,20.5,21.5,20.5z"/><path fill="#CFD8DC" d="M21.5,8.5C20.122,8.5,19,7.378,19,6s1.122-2.5,2.5-2.5S24,4.622,24,6S22.878,8.5,21.5,8.5z"/><path fill="#CFD8DC" d="M2.5,8.5C1.122,8.5,0,7.378,0,6s1.122-2.5,2.5-2.5S5,4.622,5,6S3.878,8.5,2.5,8.5z"/></svg>