<svg xmlns="http://www.w3.org/2000/svg"  viewBox="0 0 50 50" width="200px" height="200px" baseProfile="basic"><polygon fill="#5ccae6" points="45,25 37,38.86 25,45.78 13,38.86 5,25 13,11.145 25,4.22 37,11.14"/><polygon fill="#61d6f2" points="5,25 13,38.859 25,45.785 25,36.55"/><polygon fill="#66e1ff" points="13,11.145 5,25 25,36.55 25,18.072"/><polygon fill="#479db3" points="45,25 37,38.859 25,45.785 25,36.55"/><polygon fill="#52b4cc" points="37,11.138 45,25 25,36.55 25,18.072"/><polygon fill="#61ff7b" points="25,18.072 21,25 21,30.774 12,20.959 11,14.608 13,11.145"/><polygon fill="#5cf275" points="13,11.145 18,10.566 23,12.298 25,18.072"/><polygon fill="#61ff7b" points="25,36.55 25,30.774 22,31.351 21,34.238"/><polygon fill="#5cf275" points="25,36.55 21,34.238 23,38.856 23,43.475 25,42.321"/><polygon fill="#49bf5c" points="25,42.321 29,37.702 30,33.66 25,36.55"/><polygon fill="#4ecc62" points="41,18.072 37,19.226 35,25 40,27.887 45,25"/><polyline fill="#49bf5c" points="40,27.887 41,31.928 45,25"/><polygon fill="#4ecc62" points="25,30.774 30,33.66 25,36.55"/></svg>